<svg xmlns="http://www.w3.org/2000/svg" width="1920" height="920" viewBox="0 0 1920 920"><defs><style>.a{fill:#fff;opacity:0.761;mix-blend-mode:multiply;isolation:isolate;}.b,.c{fill:#f8f8f8;}.b{opacity:0.879;}.d,.e,.j{fill:none;}.d{stroke:#707070;stroke-dasharray:1 10;}.d,.e{stroke-linecap:round;}.e{stroke:#d70900;stroke-width:2px;stroke-dasharray:2 15;}.f,.g{fill:#d70900;}.f{font-size:13px;}.f,.g,.h{font-family:EncodeSans-Medium, Encode Sans;font-weight:500;}.g,.h{font-size:24px;}.h{fill:#8e8e8e;}.i{stroke:none;}</style></defs><g transform="translate(0 -1073)"><rect class="a" width="1920" height="920" transform="translate(0 1073)"/><path class="b" d="M200,0C322.595,190.973,655.365,89.543,655.365,200S255.624,771.026,243.742,475.852,0,310.457,0,200,77.405-190.973,200,0Z" transform="translate(535 1358)"/><circle class="c" cx="200" cy="200" r="200" transform="translate(1477 1119)"/><g class="d" transform="translate(185 1828)"><circle class="i" cx="51.5" cy="51.5" r="51.5"/><circle class="j" cx="51.5" cy="51.5" r="51"/></g><g class="e" transform="translate(1605 1645)"><circle class="i" cx="25.5" cy="25.5" r="25.5"/><circle class="j" cx="25.5" cy="25.5" r="24.5"/></g><text class="f" transform="translate(234 1349)"><tspan x="0" y="0">+</tspan></text><text class="g" transform="translate(832 1288)"><tspan x="0" y="0">+</tspan></text><text class="h" transform="translate(629 1905)"><tspan x="0" y="0">+</tspan></text></g></svg>